<svg width="28" height="28" viewBox="0 0 28 28" fill="none" xmlns="http://www.w3.org/2000/svg">
<path d="M13.6627 0.0498047C6.13 0.0498047 0.0234375 6.15637 0.0234375 13.6891C0.0234375 20.0853 4.42728 25.4526 10.368 26.9268V17.8572H7.55558V13.6891H10.368V11.893C10.368 7.25078 12.469 5.09905 17.0267 5.09905C17.8909 5.09905 19.3819 5.26873 19.9918 5.43785V9.21592C19.67 9.1821 19.1107 9.16519 18.4162 9.16519C16.1799 9.16519 15.3158 10.0125 15.3158 12.2149V13.6891H19.7709L19.0055 17.8572H15.3158V27.2285C22.0694 26.4128 27.3025 20.6625 27.3025 13.6891C27.3019 6.15637 21.1954 0.0498047 13.6627 0.0498047Z" fill="#35651D"/>
</svg>
