<svg width="28" height="28" viewBox="0 0 28 28" fill="none" xmlns="http://www.w3.org/2000/svg">
<path d="M14.3766 2.45857C18.0208 2.45857 18.4523 2.47456 19.8855 2.53849C21.2175 2.5971 21.9367 2.82086 22.4163 3.00734C23.0503 3.25242 23.5085 3.55078 23.9826 4.02495C24.4621 4.50446 24.7552 4.95732 25.0002 5.59134C25.1867 6.07084 25.4105 6.79543 25.4691 8.12206C25.533 9.56057 25.549 9.99213 25.549 13.631C25.549 17.2753 25.533 17.7068 25.4691 19.14C25.4105 20.472 25.1867 21.1912 25.0002 21.6707C24.7552 22.3047 24.4568 22.7629 23.9826 23.2371C23.5031 23.7166 23.0503 24.0097 22.4163 24.2547C21.9367 24.4412 21.2122 24.665 19.8855 24.7236C18.447 24.7875 18.0155 24.8035 14.3766 24.8035C10.7323 24.8035 10.3008 24.7875 8.86758 24.7236C7.53562 24.665 6.81636 24.4412 6.33686 24.2547C5.70284 24.0097 5.24465 23.7113 4.77047 23.2371C4.29097 22.7576 3.99794 22.3047 3.75286 21.6707C3.56638 21.1912 3.34261 20.4666 3.28401 19.14C3.22007 17.7015 3.20409 17.2699 3.20409 13.631C3.20409 9.9868 3.22007 9.55524 3.28401 8.12206C3.34261 6.7901 3.56638 6.07084 3.75286 5.59134C3.99794 4.95732 4.2963 4.49913 4.77047 4.02495C5.24998 3.54545 5.70284 3.25242 6.33686 3.00734C6.81636 2.82086 7.54095 2.5971 8.86758 2.53849C10.3008 2.47456 10.7323 2.45857 14.3766 2.45857ZM14.3766 0.00244141C10.6737 0.00244141 10.2102 0.0184249 8.75569 0.0823589C7.30652 0.146293 6.31022 0.380717 5.44711 0.716371C4.5467 1.06801 3.78482 1.53153 3.02827 2.29341C2.26639 3.04996 1.80287 3.81184 1.45123 4.70692C1.11558 5.57535 0.881156 6.56633 0.817222 8.0155C0.753288 9.47533 0.737305 9.93885 0.737305 13.6417C0.737305 17.3445 0.753288 17.8081 0.817222 19.2626C0.881156 20.7117 1.11558 21.708 1.45123 22.5711C1.80287 23.4715 2.26639 24.2334 3.02827 24.99C3.78482 25.7465 4.5467 26.2154 5.44178 26.5617C6.31022 26.8973 7.30119 27.1318 8.75036 27.1957C10.2049 27.2596 10.6684 27.2756 14.3712 27.2756C18.0741 27.2756 18.5376 27.2596 19.9921 27.1957C21.4413 27.1318 22.4376 26.8973 23.3007 26.5617C24.1957 26.2154 24.9576 25.7465 25.7142 24.99C26.4707 24.2334 26.9396 23.4715 27.2859 22.5765C27.6215 21.708 27.856 20.7171 27.9199 19.2679C27.9838 17.8134 27.9998 17.3499 27.9998 13.647C27.9998 9.94418 27.9838 9.48065 27.9199 8.02616C27.856 6.57699 27.6215 5.58068 27.2859 4.71757C26.9502 3.81184 26.4867 3.04996 25.7248 2.29341C24.9683 1.53686 24.2064 1.06801 23.3113 0.721699C22.4429 0.386045 21.4519 0.151621 20.0027 0.0876867C18.5429 0.0184249 18.0794 0.00244141 14.3766 0.00244141Z" fill="#35651D"/>
<path d="M14.3449 6.63281C10.4678 6.63281 7.32227 9.77091 7.32227 13.6389C7.32227 17.5069 10.4678 20.645 14.3449 20.645C18.222 20.645 21.3675 17.5069 21.3675 13.6389C21.3675 9.77091 18.222 6.63281 14.3449 6.63281ZM14.3449 18.1835C11.8296 18.1835 9.78952 16.1483 9.78952 13.6389C9.78952 11.1295 11.8296 9.09427 14.3449 9.09427C16.8602 9.09427 18.9002 11.1295 18.9002 13.6389C18.9002 16.1483 16.8602 18.1835 14.3449 18.1835Z" fill="#35651D"/>
<path d="M23.2849 6.35586C23.2849 7.26159 22.5479 7.99151 21.6454 7.99151C20.7375 7.99151 20.0059 7.25627 20.0059 6.35586C20.0059 5.45013 20.7428 4.72021 21.6454 4.72021C22.5479 4.72021 23.2849 5.45546 23.2849 6.35586Z" fill="#35651D"/>
</svg>
