<svg width="15" height="11" viewBox="0 0 15 11" fill="none" xmlns="http://www.w3.org/2000/svg">
<path fill-rule="evenodd" clip-rule="evenodd" d="M2.57812 1.28125C2.1898 1.28125 1.875 1.59605 1.875 1.98437V9.01562C1.875 9.40395 2.1898 9.71875 2.57812 9.71875H12.4219C12.8102 9.71875 13.125 9.40395 13.125 9.01562V1.98437C13.125 1.59605 12.8102 1.28125 12.4219 1.28125H2.57812ZM0.9375 1.98437C0.9375 1.07828 1.67203 0.34375 2.57812 0.34375H12.4219C13.328 0.34375 14.0625 1.07828 14.0625 1.98437V9.01562C14.0625 9.92172 13.328 10.6562 12.4219 10.6562H2.57812C1.67203 10.6562 0.9375 9.92172 0.9375 9.01562V1.98437Z" fill="#696A75"/>
<path fill-rule="evenodd" clip-rule="evenodd" d="M2.91124 2.39972C3.07018 2.19537 3.36468 2.15855 3.56903 2.31749L7.5 5.37491L11.431 2.31749C11.6353 2.15855 11.9298 2.19537 12.0888 2.39972C12.2477 2.60407 12.2109 2.89857 12.0065 3.05751L7.78778 6.33876C7.61851 6.47041 7.38149 6.47041 7.21222 6.33876L2.99347 3.05751C2.78912 2.89857 2.7523 2.60407 2.91124 2.39972Z" fill="#696A75"/>
</svg>
