<svg width="17" height="17" viewBox="0 0 17 17" fill="none" xmlns="http://www.w3.org/2000/svg">
<path d="M7.50292 2.8208C6.5637 2.8208 5.64558 3.09931 4.86465 3.62111C4.08372 4.14291 3.47505 4.88457 3.11563 5.75229C2.75621 6.62002 2.66217 7.57484 2.8454 8.49601C3.02863 9.41718 3.48091 10.2633 4.14503 10.9275C4.80916 11.5916 5.65531 12.0439 6.57648 12.2271C7.49765 12.4103 8.45247 12.3163 9.32019 11.9569C10.1879 11.5974 10.9296 10.9888 11.4514 10.2078C11.9732 9.42691 12.2517 8.50878 12.2517 7.56957C12.2516 6.31014 11.7513 5.10232 10.8607 4.21177C9.97017 3.32122 8.76235 2.82088 7.50292 2.8208Z" stroke="#52525B" stroke-width="1.45102" stroke-miterlimit="10"/>
<path d="M11.0457 11.1128L14.3621 14.4293" stroke="#52525B" stroke-width="1.45102" stroke-miterlimit="10" stroke-linecap="round"/>
</svg>
