<svg width="48" height="47" viewBox="0 0 48 47" fill="none" xmlns="http://www.w3.org/2000/svg">
<path fill-rule="evenodd" clip-rule="evenodd" d="M47.4019 23.2787C47.4019 36.1163 36.995 46.5233 24.1574 46.5233C11.3198 46.5233 0.912842 36.1163 0.912842 23.2787C0.912842 10.4411 11.3198 0.0341797 24.1574 0.0341797C36.995 0.0341797 47.4019 10.4411 47.4019 23.2787ZM24.9904 17.1943C22.7295 18.1347 18.2109 20.081 11.4347 23.0334C10.3343 23.4709 9.75789 23.899 9.70542 24.3176C9.61674 25.025 10.5026 25.3035 11.7089 25.6828C11.873 25.7344 12.043 25.7879 12.2173 25.8446C13.4041 26.2303 15.0006 26.6817 15.8306 26.6996C16.5834 26.7159 17.4237 26.4055 18.3514 25.7685C24.6826 21.4947 27.9509 19.3345 28.1561 19.288C28.3008 19.2551 28.5014 19.2138 28.6373 19.3346C28.7732 19.4554 28.7599 19.6842 28.7455 19.7456C28.6577 20.1197 25.1804 23.3525 23.3809 25.0255C22.8199 25.5471 22.4219 25.917 22.3406 26.0015C22.1584 26.1908 21.9727 26.3698 21.7942 26.5419C20.6916 27.6048 19.8647 28.4019 21.8399 29.7035C22.7891 30.329 23.5487 30.8463 24.3065 31.3623C25.134 31.9259 25.9594 32.488 27.0273 33.188C27.2994 33.3664 27.5593 33.5516 27.8124 33.7321C28.7755 34.4186 29.6407 35.0355 30.7096 34.9371C31.3307 34.8799 31.9723 34.2959 32.2982 32.554C33.0682 28.4374 34.5819 19.5179 34.9317 15.8424C34.9623 15.5203 34.9238 15.1082 34.8928 14.9273C34.8618 14.7464 34.7971 14.4886 34.562 14.2978C34.2835 14.0718 33.8535 14.0242 33.6612 14.0276C32.787 14.043 31.4456 14.5094 24.9904 17.1943Z" fill="white"/>
</svg>
