<svg width="28" height="28" viewBox="0 0 28 28" fill="none" xmlns="http://www.w3.org/2000/svg">
<path d="M0.44043 27.2785L2.35788 20.2736C1.17468 18.2232 0.552954 15.8988 0.55409 13.5154C0.5575 6.06378 6.62128 0 14.0717 0C17.6873 0.0011366 21.0812 1.40939 23.634 3.96447C26.1856 6.51956 27.5905 9.91573 27.5894 13.5279C27.5859 20.9806 21.5222 27.0444 14.0717 27.0444C11.8099 27.0432 9.581 26.4761 7.60672 25.3986L0.44043 27.2785ZM7.93861 22.9514C9.84355 24.0824 11.6621 24.7598 14.0672 24.7609C20.2594 24.7609 25.3036 19.7212 25.3071 13.5256C25.3093 7.31746 20.2889 2.28457 14.0763 2.2823C7.8795 2.2823 2.83866 7.322 2.83639 13.5165C2.83525 16.0454 3.57632 17.939 4.8209 19.9201L3.68543 24.0665L7.93861 22.9514ZM20.8811 16.741C20.797 16.6001 20.572 16.516 20.2333 16.3466C19.8957 16.1773 18.2351 15.3601 17.9248 15.2475C17.6157 15.135 17.3906 15.0782 17.1644 15.4169C16.9394 15.7545 16.2915 16.516 16.0949 16.741C15.8982 16.9661 15.7005 16.9945 15.3629 16.8251C15.0253 16.6558 13.9365 16.3 12.6464 15.1487C11.6428 14.253 10.9642 13.1471 10.7676 12.8084C10.571 12.4708 10.7472 12.2878 10.9154 12.1196C11.0677 11.9684 11.2529 11.7252 11.4223 11.5274C11.5939 11.3319 11.6496 11.191 11.7633 10.9648C11.8758 10.7398 11.8201 10.542 11.7349 10.3726C11.6496 10.2044 10.9745 8.54158 10.6937 7.8653C10.4187 7.20721 10.1402 7.29586 9.93335 7.28563L9.28548 7.27427C9.06044 7.27427 8.69445 7.35837 8.38529 7.69708C8.07614 8.03579 7.20322 8.85187 7.20322 10.5147C7.20322 12.1776 8.41371 13.7836 8.58192 14.0086C8.75128 14.2337 10.9631 17.6458 14.3513 19.1086C15.1572 19.4564 15.7869 19.6644 16.2767 19.8201C17.086 20.077 17.8225 20.0406 18.4045 19.9542C19.0535 19.8576 20.4026 19.137 20.6845 18.3482C20.9664 17.5583 20.9664 16.882 20.8811 16.741Z" fill="#35651D"/>
</svg>
